#!OML:ASF F:\VICON\USERDATA\INSTALL\rory3\rory3.ASF
:FULLY-SPECIFIED
:DEGREES
1298
root 1.53954 17.6281 13.0638 -171.938 -5.20969 178.328
lowerback 3.15542 -2.60196 -3.38169
upperback -0.96171 -3.60944 3.81878
thorax -2.30811 -1.76402 6.03671
lowerneck -19.6076 -0.918406 -7.43526
upperneck 37.0139 5.45842 -0.858771
head 16.5843 2.16423 2.31978
rclavicle -5.4467e-014 1.74931e-014
rhumerus -24.8187 -5.10581 -77.2951
rradius 42.7119
rwrist 15.3107
rhand -23.7809 0.985779
rfingers 7.12502
rthumb 2.68893 -28.977
lclavicle -5.4467e-014 1.74931e-014
lhumerus -28.1878 1.52788 83.5028
lradius 54.1289
lwrist -6.92583
lhand -14.9814 24.5453
lfingers 7.12502
lthumb 11.1827 54.2273
rfemur -29.7665 -3.13597 21.6435
rtibia 35.8475
rfoot -16.1102 -3.42467
rtoes 8.46613
lfemur -3.97096 0.478059 -24.4447
ltibia 15.9629
lfoot -16.9422 -1.60112
ltoes -10.9469
1299
root 1.5235 17.6248 13.1297 -171.772 -5.74685 178.384
lowerback 3.23838 -2.77337 -3.35287
upperback -1.06546 -3.84026 3.89861
thorax -2.42923 -1.87563 6.1224
lowerneck -19.5582 -0.909988 -7.41097
upperneck 36.8892 5.37567 -0.7858
head 16.5051 2.1406 2.32324
rclavicle -1.27222e-014 -6.20208e-014
rhumerus -24.8725 -5.19709 -77.2454
rradius 42.847
rwrist 15.2375
rhand -23.425 2.00943
rfingers 7.12502
rthumb 3.03264 -27.9488
lclavicle -1.27222e-014 -6.20208e-014
lhumerus -28.161 1.25468 83.4987
lradius 54.3519
lwrist -6.91679
lhand -14.8677 24.6905
lfingers 7.12502
lthumb 11.2923 54.3666
rfemur -30.1214 -3.54921 21.6693
rtibia 35.8278
rfoot -16.127 -3.41046
rtoes 9.04332
lfemur -4.46384 0.176868 -24.3902
ltibia 16.0729
lfoot -17.1108 -1.86079
ltoes -10.6224
1300
root 1.50989 17.6246 13.1957 -171.591 -5.90875 178.615
lowerback 3.24719 -2.7726 -3.22031
upperback -1.1281 -3.83759 3.99335
thorax -2.50162 -1.87532 6.15021
lowerneck -19.5731 -0.948816 -7.35433
upperneck 36.7547 5.21863 -0.74641
head 16.4425 2.08189 2.29298
rclavicle -1.59028e-014 2.38542e-014
rhumerus -24.9275 -5.2531 -77.3045
rradius 43.0668
rwrist 14.6774
rhand -23.4867 2.26183
rfingers 7.12502
rthumb 2.97304 -27.6972
lclavicle -1.59028e-014 2.38542e-014
lhumerus -28.0531 0.88506 83.4999
lradius 54.477
lwrist -6.75261
lhand -14.6891 24.6621
lfingers 7.12502
lthumb 11.4646 54.3286
rfemur -30.5673 -3.84989 21.9227
rtibia 35.7729
rfoot -16.0046 -3.34488
rtoes 8.07216
lfemur -5.02468 -0.0406968 -24.2051
ltibia 16.2986
lfoot -17.2343 -1.8887
ltoes -10.4415
1301
root 1.49878 17.6266 13.2622 -171.54 -6.04762 178.77
lowerback 3.33154 -2.73073 -3.1474
upperback -1.08976 -3.78262 4.0464
thorax -2.51753 -1.85052 6.16643
lowerneck -19.6643 -1.04048 -7.39987
upperneck 36.6097 4.97623 -0.615819
head 16.3906 1.98064 2.30398
rclavicle -4.05521e-014 4.6118e-014
rhumerus -24.8461 -5.56164 -77.3118
rradius 43.1561
rwrist 14.5081
rhand -23.5698 1.71621
rfingers 7.12502
rthumb 2.89281 -28.2439
lclavicle -4.05521e-014 4.6118e-014
lhumerus -27.7831 0.497451 83.5582
lradius 54.4684
lwrist -6.52197
lhand -14.7117 24.6009
lfingers 7.12502
lthumb 11.4428 54.2686
rfemur -30.827 -4.06426 22.0693
rtibia 35.7038
rfoot -16.0862 -3.26823
rtoes 7.08769
lfemur -5.47323 -0.00581093 -24.0803
ltibia 16.5539
lfoot -17.2071 -2.04338
ltoes -10.3703
1302
root 1.49027 17.6313 13.328 -171.528 -6.16468 178.64
lowerback 3.5007 -2.70542 -3.37755
upperback -1.06896 -3.75747 3.99651
thorax -2.58336 -1.83042 6.25372
lowerneck -19.669 -1.0976 -7.39624
upperneck 36.4736 4.79018 -0.518545
head 16.3232 1.91109 2.30238
rclavicle -3.91606e-014 -1.66979e-014
rhumerus -24.8416 -5.94172 -77.3204
rradius 43.0405
rwrist 14.5836
rhand -23.6407 1.97371
rfingers 7.12502
rthumb 2.82439 -27.9873
lclavicle -3.91606e-014 -1.66979e-014
lhumerus -27.5392 0.144562 83.5507
lradius 54.3187
lwrist -6.38142
lhand -14.7568 24.5854
lfingers 7.12502
lthumb 11.3993 54.2556
rfemur -31.0111 -4.19966 21.8629
rtibia 35.6675
rfoot -16.3045 -3.15469
rtoes 6.00129
lfemur -5.85255 0.256765 -24.2406
ltibia 16.7841
lfoot -17.1074 -2.49608
ltoes -10.2975
1303
root 1.48293 17.6404 13.3922 -171.444 -6.3031 178.511
lowerback 3.61376 -2.69461 -3.62092
upperback -1.06934 -3.75187 3.9445
thorax -2.63644 -1.8197 6.3444
lowerneck -19.7608 -1.13315 -7.3174
upperneck 36.4081 4.62169 -0.404314
head 16.3124 1.85823 2.30313
rclavicle 1.39149e-015 3.49861e-014
rhumerus -24.8598 -6.34664 -77.3412
rradius 42.8432
rwrist 14.5786
rhand -23.762 2.40722
rfingers 7.12502
rthumb 2.70718 -27.5553
lclavicle 1.39149e-015 3.49861e-014
lhumerus -27.4215 -0.155751 83.519
lradius 54.2537
lwrist -6.36402
lhand -14.7013 24.5347
lfingers 7.12502
lthumb 11.4528 54.2019
rfemur -31.2721 -4.33169 21.6782
rtibia 35.6766
rfoot -16.6176 -3.03497
rtoes 4.59749
lfemur -6.26107 0.657535 -24.3863
ltibia 16.9131
lfoot -16.8975 -3.20174
ltoes -9.99529
1304
root 1.48023 17.6482 13.4516 -171.394 -6.4293 178.346
lowerback 3.7423 -2.68719 -3.99094
upperback -1.02092 -3.75886 3.93272
thorax -2.63553 -1.81626 6.54937
lowerneck -19.8999 -1.1649 -7.4099
upperneck 36.2795 4.44356 -0.149464
head 16.2724 1.79189 2.38921
rclavicle -2.24627e-014 2.62396e-014
rhumerus -24.9069 -6.53456 -77.3525
rradius 42.7708
rwrist 14.5165
rhand -23.8771 2.45744
rfingers 7.12502
rthumb 2.59602 -27.5065
lclavicle -2.24627e-014 2.62396e-014
lhumerus -27.2198 -0.292901 83.5215
lradius 54.0938
lwrist -6.44689
lhand -14.5993 24.4823
lfingers 7.12502
lthumb 11.5512 54.1439
rfemur -31.4572 -4.38189 21.4408
rtibia 35.7111
rfoot -17.0278 -2.8657
rtoes 3.78057
lfemur -6.56302 1.20224 -24.5568
ltibia 16.9458
lfoot -16.7352 -4.03862
ltoes -9.39291
1305
root 1.47667 17.6537 13.5066 -171.317 -6.41567 178.101
lowerback 3.75526 -2.65023 -4.43332
upperback -0.916661 -3.72625 3.88018
thorax -2.51543 -1.7968 6.74126
lowerneck -19.9637 -1.19311 -7.52151
upperneck 35.9655 4.26226 0.0110727
head 16.1258 1.70711 2.42613
rclavicle -1.94809e-014 3.73715e-014
rhumerus -24.9142 -6.60716 -77.4012
rradius 42.7636
rwrist 14.579
rhand -23.8075 2.07905
rfingers 7.12502
rthumb 2.66323 -27.8841
lclavicle -1.94809e-014 3.73715e-014
lhumerus -26.8624 -0.481287 83.4649
lradius 53.733
lwrist -6.40471
lhand -14.6786 24.5809
lfingers 7.12502
lthumb 11.4748 54.2469
rfemur -31.6737 -4.41226 21.1092
rtibia 35.7373
rfoot -17.4216 -2.51681
rtoes 3.27772
lfemur -6.85623 1.68382 -24.8508
ltibia 17.0347
lfoot -16.7016 -4.60848
ltoes -8.66167
1306
root 1.47042 17.6582 13.5652 -171.268 -6.32599 178.015
lowerback 3.80215 -2.54291 -4.60498
upperback -0.801329 -3.58869 3.77371
thorax -2.43873 -1.72859 6.71901
lowerneck -20.1449 -1.27755 -7.50511
upperneck 35.7985 3.98601 0.182389
head 16.0885 1.59954 2.43684
rclavicle 1.90833e-014 6.2816e-014
rhumerus -24.8324 -7.12601 -77.4824
rradius 42.4891
rwrist 15.0104
rhand -23.3868 2.08777
rfingers 7.12502
rthumb 3.06956 -27.8699
lclavicle 1.90833e-014 6.2816e-014
lhumerus -26.5474 -0.86494 83.3323
lradius 53.3874
lwrist -6.4117
lhand -14.6311 24.5385
lfingers 7.12502
lthumb 11.5205 54.2019
rfemur -31.9034 -4.40563 20.9534
rtibia 35.7842
rfoot -17.8754 -2.24847
rtoes 2.09807
lfemur -7.1614 1.86305 -25.0044
ltibia 17.1557
lfoot -16.6142 -4.85114
ltoes -7.88803
1307
root 1.46497 17.6574 13.6271 -171.272 -6.24778 178.106
lowerback 3.94577 -2.40252 -4.55505
upperback -0.762487 -3.4018 3.6921
thorax -2.51452 -1.63295 6.60319
lowerneck -20.0874 -1.38684 -7.49355
upperneck 35.5819 3.66735 0.349823
head 15.9734 1.48547 2.43394
rclavicle 1.68967e-014 -1.35174e-014
rhumerus -24.9682 -7.71857 -77.5475
rradius 42.15
rwrist 15.3908
rhand -23.1986 2.11824
rfingers 7.12502
rthumb 3.25129 -27.8367
lclavicle 1.68967e-014 -1.35174e-014
lhumerus -26.504 -1.27609 83.2532
lradius 53.0896
lwrist -6.51343
lhand -14.6069 24.4344
lfingers 7.12502
lthumb 11.5439 54.0965
rfemur -32.0872 -4.32019 20.9957
rtibia 35.857
rfoot -18.5686 -2.21374
rtoes 0.527793
lfemur -7.46328 1.81198 -24.9538
ltibia 17.2428
lfoot -16.3789 -4.92476
ltoes -7.63427
1308
root 1.46023 17.6568 13.6849 -171.263 -6.19444 178.209
lowerback 4.01435 -2.33622 -4.51254
upperback -0.753255 -3.31316 3.67009
thorax -2.56005 -1.58768 6.55526
lowerneck -19.911 -1.41411 -7.58071
upperneck 35.3335 3.52192 0.493429
head 15.8081 1.43303 2.46801
rclavicle 1.49089e-014 4.69132e-014
rhumerus -25.2155 -7.79026 -77.6784
rradius 41.882
rwrist 15.4061
rhand -24.043 1.54486
rfingers 7.12502
rthumb 2.43581 -28.421
lclavicle 1.49089e-014 4.69132e-014
lhumerus -26.5896 -1.36058 83.1758
lradius 52.7684
lwrist -6.61192
lhand -14.47 24.3099
lfingers 7.12502
lthumb 11.6759 53.9645
rfemur -32.2475 -4.18277 21.048
rtibia 35.9434
rfoot -19.2706 -2.10559
rtoes -0.660715
lfemur -7.79128 1.7322 -24.8721
ltibia 17.3219
lfoot -16.0908 -5.01072
ltoes -8.15122
1309
root 1.45186 17.6653 13.7376 -171.26 -6.11305 178.325
lowerback 4.05236 -2.31501 -4.44208
upperback -0.742211 -3.28344 3.67907
thorax -2.57759 -1.57399 6.5249
lowerneck -19.8241 -1.39835 -7.70195
upperneck 35.16 3.49911 0.590948
head 15.698 1.41893 2.5159
rclavicle 1.03368e-014 2.70347e-014
rhumerus -25.5223 -7.52275 -77.8145
rradius 41.7154
rwrist 15.4113
rhand -24.614 1.08083
rfingers 7.12502
rthumb 1.88436 -28.8906
lclavicle 1.03368e-014 2.70347e-014
lhumerus -26.6558 -1.26599 83.0645
lradius 52.4368
lwrist -6.59168
lhand -14.3938 24.3813
lfingers 7.12502
lthumb 11.7494 54.0318
rfemur -32.3972 -4.21271 21.1784
rtibia 36.0608
rfoot -19.7969 -1.98448
rtoes -2.59155
lfemur -8.04353 1.6923 -24.8008
ltibia 17.3417
lfoot -15.8432 -5.0463
ltoes -8.63336
1310
root 1.43888 17.6756 13.7871 -171.278 -6.03645 178.497
lowerback 4.06914 -2.27071 -4.23901
upperback -0.693542 -3.21683 3.68195
thorax -2.55666 -1.54659 6.40788
lowerneck -19.8252 -1.38649 -7.87915
upperneck 35.0059 3.45014 0.803793
head 15.6151 1.39873 2.61924
rclavicle 8.54774e-015 3.4191e-014
rhumerus -25.6844 -7.4204 -77.9374
rradius 41.3838
rwrist 15.5108
rhand -23.7296 3.11005
rfingers 7.12502
rthumb 2.73854 -26.8521
lclavicle 8.54774e-015 3.4191e-014
lhumerus -26.7033 -1.15184 82.9608
lradius 52.1174
lwrist -6.76418
lhand -14.2737 24.481
lfingers 7.12502
lthumb 11.8652 54.1248
rfemur -32.5072 -4.41271 21.4368
rtibia 36.2196
rfoot -20.1989 -1.97425
rtoes -5.11852
lfemur -8.1761 1.57765 -24.6906
ltibia 17.2612
lfoot -15.5807 -4.97271
ltoes -8.22934
1311
root 1.42468 17.6868 13.8346 -171.343 -5.98836 178.568
lowerback 4.12109 -2.20485 -4.1002
upperback -0.582583 -3.12513 3.64848
thorax -2.49257 -1.50788 6.28757
lowerneck -19.8792 -1.43411 -8.02908
upperneck 34.7657 3.3182 0.912708
head 15.5125 1.32738 2.65424
rclavicle -3.89618e-014 4.37326e-014
rhumerus -25.732 -7.57779 -78.0284
rradius 40.9091
rwrist 15.742
rhand -24.7012 0.115552
rfingers 7.12502
rthumb 1.80016 -29.8566
lclavicle -3.89618e-014 4.37326e-014
lhumerus -26.6971 -1.07928 82.911
lradius 51.7395
lwrist -7.08594
lhand -14.0725 24.7501
lfingers 7.12502
lthumb 12.0592 54.3826
rfemur -32.5168 -4.5945 21.5358
rtibia 36.4092
rfoot -20.4702 -1.89805
rtoes -6.42562
lfemur -8.22262 1.40894 -24.6938
ltibia 17.1762
lfoot -15.2816 -4.85417
ltoes -7.72935
